<?xml version="1.0" standalone="no"?>
<!DOCTYPE svg PUBLIC "-//W3C//DTD SVG 20010904//EN"
 "http://www.w3.org/TR/2001/REC-SVG-20010904/DTD/svg10.dtd">
<svg version="1.0" xmlns="http://www.w3.org/2000/svg"
 width="256.000000pt" height="256.000000pt" viewBox="0 0 256.000000 256.000000"
 preserveAspectRatio="xMidYMid meet">

<g transform="translate(0.000000,256.000000) scale(0.100000,-0.100000)"
fill="#000000" stroke="none">
<path d="M469 2501 l-29 -29 0 -416 0 -415 -74 -35 c-131 -60 -239 -148 -323
-260 l-43 -58 0 -428 0 -428 43 -58 c217 -293 593 -406 941 -285 123 43 270
146 342 240 l39 50 585 1 c322 0 591 4 598 8 10 7 12 228 10 1073 l-3 1064
-1028 3 -1028 2 -30 -29z m856 -143 c-57 -124 -69 -186 -70 -343 0 -116 4
-153 23 -219 35 -123 103 -245 185 -332 116 -124 225 -192 384 -240 76 -23
106 -27 218 -27 149 0 240 20 361 78 40 19 75 35 78 35 4 0 5 -186 4 -412 l-3
-413 -532 -3 c-322 -1 -533 1 -533 7 0 5 9 31 21 58 57 134 75 327 43 481 -66
328 -338 586 -674 642 -48 8 -114 10 -182 7 l-108 -7 0 380 0 380 409 0 410 0
-34 -72z m1185 -393 l0 -465 -42 -31 c-24 -18 -76 -47 -116 -66 -381 -178
-831 36 -937 447 -22 83 -22 244 0 325 19 72 67 177 101 222 l25 33 485 0 484
0 0 -465z m-1636 -455 c117 -30 207 -82 301 -175 90 -89 138 -170 176 -295 29
-94 31 -243 6 -340 -62 -236 -240 -420 -471 -487 -96 -28 -246 -31 -345 -7
-240 59 -430 249 -492 492 -62 244 27 515 224 680 61 50 189 116 267 136 83
22 241 20 334 -4z"/>
</g>
</svg>
