<?xml version="1.0" standalone="no"?>
<!DOCTYPE svg PUBLIC "-//W3C//DTD SVG 20010904//EN"
 "http://www.w3.org/TR/2001/REC-SVG-20010904/DTD/svg10.dtd">
<svg version="1.0" xmlns="http://www.w3.org/2000/svg"
 width="256.000000pt" height="256.000000pt" viewBox="0 0 256.000000 256.000000"
 preserveAspectRatio="xMidYMid meet">

<g transform="translate(0.000000,256.000000) scale(0.100000,-0.100000)"
fill="#000000" stroke="none">
<path d="M652 2320 c-18 -11 -41 -34 -52 -52 -19 -31 -20 -51 -20 -389 l0
-357 -52 -17 c-190 -61 -357 -215 -435 -400 -37 -86 -56 -209 -50 -306 20
-280 195 -512 459 -611 71 -27 100 -32 203 -35 145 -6 222 9 345 69 71 34 101
56 178 134 l93 94 522 0 c503 0 523 1 555 20 18 11 41 34 52 52 20 32 20 49
18 885 l-3 853 -38 37 -37 38 -853 3 c-836 2 -853 2 -885 -18z m712 -197
c-188 -380 1 -828 411 -970 71 -24 94 -27 210 -27 131 0 180 10 318 69 16 7
17 -11 17 -289 l0 -296 -461 0 -461 0 7 33 c21 95 24 119 25 203 1 216 -101
420 -275 552 -91 68 -196 111 -317 131 l-98 15 0 323 0 323 329 0 329 0 -34
-67z m956 -338 l0 -405 -47 -30 c-80 -51 -149 -72 -253 -77 -117 -7 -188 7
-282 54 -89 45 -190 143 -235 228 -99 189 -83 414 44 588 l35 47 369 0 369 0
0 -405z m-1455 -410 c193 -49 344 -197 401 -390 24 -84 22 -220 -5 -306 -53
-168 -196 -309 -366 -361 -101 -32 -235 -30 -331 4 -387 137 -500 619 -212
906 133 134 336 192 513 147z"/>
</g>
</svg>
